# xmcd
#
# Track frame offsets: 
#        150
#        14372
#        27625
#        40595
#        53352
#        64520
#        76722
#        90790
#        102590
#        115425
#        129555
#        142455
#        155622
#        166332
#        179672
#        190762
#        203275
#        217345
#
# Disc length: 3076 seconds
#
# Revision: 0
# Processed by: cddbd v1.5.1PL0 Copyright (c) Steve Scherf et al.
# Submitted via: ExactAudioCopy v0.95a5
#
DISCID=f50c0212
DTITLE=Sleepy John Estes - The Blues - From Memphis to Chicago 1929-19
DTITLE=41 [CD2]
DYEAR=1900
DGENRE=Blues
TTITLE0=Poor Man's Friend
TTITLE1=Hobo Jungle Blues
TTITLE2=Airplane Blues
TTITLE3=Everybody Oughta Make a Change
TTITLE4=Liquor Store Blues
TTITLE5=Easin' Back to Tennessee
TTITLE6=Fire Department Blues
TTITLE7=Clean up at Home
TTITLE8=New Someday Baby
TTITLE9=Brownsville Blues
TTITLE10=Special Agent (Railroad Police Blues)
TTITLE11=Mailman Blues
TTITLE12=Time Is Drawing Near
TTITLE13=Jailhouse Blues
TTITLE14=Tell Me How About It (Mr. Tom's Blues)
TTITLE15=Drop Down (I Don't Feel Welcome Here)
TTITLE16=Lawyer Clark Blues
TTITLE17=Working Man Blues
EXTD=
EXTT0=
EXTT1=
EXTT2=
EXTT3=
EXTT4=
EXTT5=
EXTT6=
EXTT7=
EXTT8=
EXTT9=
EXTT10=
EXTT11=
EXTT12=
EXTT13=
EXTT14=
EXTT15=
EXTT16=
EXTT17=
PLAYORDER=
